<?xml version="1.0" ?><svg id="fox" style="enable-background:new 0 0 300 300;" version="1.1" viewBox="0 0 300 300" xml:space="preserve" xmlns="http://www.w3.org/2000/svg" xmlns:xlink="http://www.w3.org/1999/xlink"><g><path d="   M62.267,102L42.964,57.274c-2.625-6.079,0.295-8.908,6.543-6.306L110,76.153L62.267,102z" style="fill-rule:evenodd;clip-rule:evenodd;fill:#ED5481;stroke:#000000;stroke-width:8;stroke-linecap:round;stroke-linejoin:round;stroke-miterlimit:10;"/><path d="   M249.733,102l19.304-44.726c2.625-6.079-0.295-8.908-6.543-6.306L202,76.153L249.733,102z" style="fill-rule:evenodd;clip-rule:evenodd;fill:#ED5481;stroke:#000000;stroke-width:8;stroke-linecap:round;stroke-linejoin:round;stroke-miterlimit:10;"/><path d="   M219.759,166.484C202.141,176.128,178.768,182,153.125,182c-26.634,0-50.819-6.336-68.651-16.652L30,148.936l29.33-7.196   c-3.563-6.18-5.5-12.824-5.5-19.74c0-33.136,44.456-60,99.295-60s99.295,26.864,99.295,60c0,6.776-1.859,13.288-5.285,19.364   L278,148.936L219.759,166.484z" style="fill-rule:evenodd;clip-rule:evenodd;fill:#F87EA1;stroke:#000000;stroke-width:8;stroke-linecap:round;stroke-linejoin:round;stroke-miterlimit:10;"/><path d="   M133.735,180.162c14.036-5.888,20.161-24.166,13.68-40.826c-6.481-16.656-23.113-25.386-37.15-19.498   c-14.036,5.888-20.161,24.166-13.68,40.826C103.066,177.324,119.699,186.05,133.735,180.162z" style="fill-rule:evenodd;clip-rule:evenodd;fill:#FFFFFF;stroke:#000000;stroke-width:8;stroke-linecap:round;stroke-linejoin:round;stroke-miterlimit:10;"/><path d="   M178.265,180.162c-14.036-5.888-20.161-24.166-13.68-40.826c6.481-16.656,23.113-25.386,37.15-19.498   c14.036,5.888,20.161,24.166,13.68,40.826C208.934,177.324,192.301,186.05,178.265,180.162z" style="fill-rule:evenodd;clip-rule:evenodd;fill:#FFFFFF;stroke:#000000;stroke-width:8;stroke-linecap:round;stroke-linejoin:round;stroke-miterlimit:10;"/><circle cx="190" cy="150" r="12" style="fill-rule:evenodd;clip-rule:evenodd;fill:#26BBEC;stroke:#000000;stroke-width:8;stroke-linecap:round;stroke-linejoin:round;stroke-miterlimit:10;"/><circle cx="122" cy="150" r="12" style="fill-rule:evenodd;clip-rule:evenodd;fill:#26BBEC;stroke:#000000;stroke-width:8;stroke-linecap:round;stroke-linejoin:round;stroke-miterlimit:10;"/><path d="   M175.047,233.515c-12.246,21.996-32.12,21.964-44.348,0l-19.534-35.088c-12.103-3.34-37.111-8.634-54.317-1.356l3.797-17.454   L42,183.721l25.987-32.341l18.228,11.316c3.735,2.318,9.903,2.578,13.852,0.698c0,0,23.422-13.393,53.933-13.393   c30.511,0,53.933,13.393,53.933,13.393c3.915,1.932,10.104,1.628,13.852-0.698l18.228-11.316L266,183.721l-18.644-4.104   l3.797,17.454c-18.603-7.87-46.324-1.041-56.997,2.125L175.047,233.515z" style="fill-rule:evenodd;clip-rule:evenodd;fill:#ED5481;stroke:#000000;stroke-width:8;stroke-linecap:round;stroke-linejoin:round;stroke-miterlimit:10;"/><ellipse cx="154" cy="246" rx="16" ry="12" style="fill-rule:evenodd;clip-rule:evenodd;fill:#595959;stroke:#000000;stroke-width:8;stroke-linecap:round;stroke-linejoin:round;stroke-miterlimit:10;"/></g><g/><g/><g/><g/><g/><g/><g/><g/><g/><g/><g/><g/><g/><g/><g/></svg>